<svg id="Capa_1" enable-background="new 0 0 512 512" height="512" viewBox="0 0 512 512" width="512" xmlns="http://www.w3.org/2000/svg"><g clip-rule="evenodd" fill-rule="evenodd"><path d="m256 504.5c120.073 0 218-98.006 218-218.175s-97.927-218.174-218-218.174-218 98.006-218 218.174 97.927 218.175 218 218.175z" fill="#f8f2f0"/><path d="m256 107.626c98.595 0 178.556 80.025 178.556 178.699s-79.961 178.7-178.556 178.7-178.527-80.026-178.527-178.7 79.932-178.699 178.527-178.699z" fill="#98bce5"/><path d="m214.96 252.282-18.111 51.123-20.027 56.555c-1.364 3.863 1.741 6.971 5.602 5.606l56.51-20.043 51.082-18.126c1.19-.407 2.757-1.569 4.092-2.934l-18.692-56.555-57.526-19.723c-1.363 1.337-2.524 2.906-2.93 4.097z" fill="#f8f2f0"/><path d="m217.891 248.186c32.362 32.388 43.855 43.891 76.217 76.278 1.364-1.336 2.525-2.905 2.931-4.096l18.111-51.123 20.027-56.555c1.393-3.863-1.712-6.971-5.602-5.606l-56.51 20.043-51.082 18.126c-1.189.406-2.728 1.568-4.092 2.933z" fill="#fd8087"/><path d="m38 286.325c0 10.079.668 20.014 2.003 29.715l38.37-11.648 49.37-14.988c3.425-2.237 3.425-3.921 0-6.158l-49.37-14.988-38.37-11.648c-1.335 9.702-2.003 19.636-2.003 29.715z" fill="#fd8087"/><path d="m242.359 272.673c-3.483 3.486-5.631 8.337-5.631 13.652 0 10.66 8.62 19.287 19.272 19.287 5.34 0 10.158-2.15 13.641-5.635 3.483-3.486 5.631-8.337 5.631-13.652 0-10.66-8.62-19.287-19.272-19.287-5.311 0-10.158 2.15-13.641 5.635z" fill="#fec165"/><path d="m294.399 219.546c2.235 16.092 3.425 32.853 3.425 50.078 0 18.648-1.393 36.745-3.976 53.999-.029.174-.058.32-.087.494l.348.349c1.364-1.336 2.525-2.905 2.931-4.096l18.111-51.123 20.027-56.555c1.393-3.863-1.712-6.971-5.602-5.606z" fill="#fd4755"/><path d="m332.159 124.677c16.776 38.342 26.557 84.528 26.557 134.199 0 85.632-29.082 160.835-72.938 203.651 37.383-6.274 70.819-24.167 96.476-49.845 28.298-28.35 47.164-66.17 51.402-108.288 1.016-11.387 1.074-23.383 0-36.135-4.237-42.061-23.016-79.793-51.228-108.114-14.511-14.554-31.49-26.609-50.269-35.468z" fill="#5f99d7"/><path d="m382.429 160.144c28.211 28.321 46.99 66.054 51.228 108.114l38.341-11.648c-12.074-88.856-77.61-160.69-163.115-182.011-2.38-.581-4.789-1.133-7.198-1.656 2.467 3.137 4.876 6.39 7.198 9.731 8.765 12.577 16.573 26.665 23.277 42.002 18.778 8.86 35.757 20.915 50.269 35.468z" fill="#e0d2ce"/><path d="m433.656 304.393c-4.237 42.119-23.103 79.938-51.402 108.288-25.657 25.678-59.093 43.571-96.476 49.845-3.106 3.05-6.298 5.955-9.578 8.656l9.491 31.313c96.65-13.158 173.158-89.727 186.306-186.455z" fill="#e0d2ce"/><path d="m238.44 462.439-12.132 40.056c9.694 1.336 19.62 2.004 29.692 2.004 10.071 0 19.998-.668 29.692-2.004l-12.132-40.056-14.483-47.754c-2.235-3.428-3.918-3.428-6.153 0z" fill="#fd8087"/><path d="m238.44 110.211 14.483 47.754c.29.436.551.813.813 1.133.755.029 1.509.029 2.264.029s1.509 0 2.264-.029c.261-.32.551-.697.813-1.133l14.483-47.754 12.132-40.056c-9.694-1.336-19.62-2.004-29.692-2.004-10.071 0-19.998.668-29.692 2.004z" fill="#fd8087"/><path d="m431.973 268.752-47.716 14.495c-3.396 2.237-3.425 3.921 0 6.158l47.716 14.495 40.024 12.142c1.335-9.702 2.003-19.636 2.003-29.715s-.668-20.014-2.003-29.715z" fill="#fd4755"/></g><path d="m327.069 200.016-107.588 38.166c-2.112.748-4.452 2.375-6.505 4.351-.13.113-.261.224-.385.348-.128.128-.243.264-.36.398-1.972 2.053-3.595 4.389-4.34 6.497l-13.032 36.774c-1.384 3.904.66 8.191 4.564 9.575 3.903 1.383 8.191-.661 9.574-4.564l10.9-30.756 12.635 12.645c-2.104 3.823-3.304 8.211-3.304 12.876 0 14.771 12.01 26.788 26.772 26.788 4.661 0 9.046-1.198 12.868-3.298l12.635 12.646-95.435 33.855 11.842-33.443c1.382-3.905-.662-8.191-4.567-9.573-3.9-1.385-8.19.662-9.573 4.566l-14.021 39.597c-1.603 4.539-.602 9.354 2.613 12.567 2.199 2.198 5.146 3.359 8.243 3.359 1.43 0 2.891-.248 4.324-.755l107.588-38.166c2.113-.748 4.453-2.376 6.507-4.352.129-.113.26-.223.384-.347.128-.128.243-.263.359-.397 1.972-2.053 3.596-4.391 4.341-6.5l38.123-107.638c1.635-4.531.662-9.351-2.538-12.579-3.207-3.235-8.036-4.25-12.624-2.64zm-71.069 98.097c-6.491 0-11.772-5.288-11.772-11.788s5.281-11.787 11.772-11.787c6.507 0 11.801 5.288 11.801 11.787s-5.294 11.788-11.801 11.788zm36.102 13.732-12.618-12.628c2.111-3.827 3.317-8.221 3.317-12.892 0-14.771-12.022-26.787-26.801-26.787-4.66 0-9.044 1.199-12.864 3.303l-12.64-12.651 95.434-33.855z"/><path d="m415.464 126.754c-27.96-27.984-61.972-47.714-99.084-57.968v-8.366c0-33.316-27.086-60.42-60.38-60.42s-60.38 27.104-60.38 60.42v8.477c-31.586 8.779-61.115 24.393-86.316 46.022-3.144 2.698-3.504 7.433-.807 10.576 2.697 3.142 7.432 3.505 10.576.807 29.129-25.001 64.455-41.392 101.955-47.712l7.165 23.638c-39.751 5.972-75.437 24.608-102.815 51.654-.326.234-.641.49-.934.782-.296.296-.554.614-.79.943-27.023 27.398-45.644 63.111-51.611 102.891l-23.605-7.166c6.268-37.232 22.441-72.354 47.086-101.381 2.682-3.157 2.295-7.891-.862-10.571-3.16-2.681-7.891-2.295-10.571.863-27.732 32.663-45.454 72.525-51.378 114.644-.105.444-.169.888-.192 1.33-1.337 9.935-2.02 19.993-2.02 30.109 0 10.257.696 20.406 2.033 30.403 0 .003.001.007.001.011 6.523 48.745 28.672 93.789 64.014 129.158 42.592 42.626 99.22 66.102 159.451 66.102 10.356 0 20.601-.71 30.69-2.076.049-.007.097-.012.146-.02 48.547-6.602 93.395-28.743 128.628-64.007 42.584-42.623 66.036-99.293 66.036-159.572s-23.452-116.949-66.036-159.571zm20.407 170.481c-.005-.001-.01-.003-.015-.005l-35.922-10.906 35.917-10.904c.008-.002.016-.005.024-.007l29.686-9.012c.618 6.56.939 13.204.939 19.923s-.322 13.364-.939 19.924zm27.712-45.909-23.627 7.173c-5.954-39.687-24.501-75.327-51.424-102.701-.24-.335-.502-.66-.803-.96-.289-.289-.6-.541-.921-.773-27.402-27.145-63.161-45.851-103.001-51.837l7.169-23.653c88.103 14.81 157.812 84.577 172.607 172.751zm-237.712-188.651c-.417.025-.836.085-1.254.183-4.696.66-9.364 1.463-13.997 2.414v-4.852c0-25.045 20.358-45.42 45.38-45.42s45.38 20.375 45.38 45.42v4.784c-14.774-3.005-29.957-4.553-45.38-4.553-10.125 0-20.19.683-30.129 2.024zm50.03 13.924-9.006 29.713c-.001.005-.003.009-.004.014l-10.891 35.932-10.887-35.918c-.004-.013-.008-.026-.012-.039l-9.001-29.697c6.592-.626 13.231-.953 19.9-.953 6.712 0 13.348.33 19.901.948zm-230.401 209.726c0-6.674.327-13.32.954-19.919l29.671 9.008c.008.003.016.005.024.007l35.917 10.904-35.922 10.906c-.005.002-.01.003-.015.005l-29.681 9.011c-.618-6.56-.948-13.203-.948-19.922zm175.524 207.751c-88.103-14.81-157.809-84.576-172.603-172.752l23.622-7.172c5.967 39.78 24.588 75.493 51.611 102.891.236.329.494.647.79.943.293.293.608.548.934.782 27.377 27.046 63.064 45.681 102.815 51.654zm34.976 2.924c-6.712 0-13.348-.33-19.901-.948l9.028-29.786c.004-.013.008-.027.012-.04l10.861-35.833 10.861 35.833c.004.014.008.028.012.042l9.028 29.785c-6.553.617-13.189.947-19.901.947zm10.254-84.49c-.206-.679-.507-1.326-.895-1.92-2.585-3.965-5.733-5.975-9.359-5.975s-6.774 2.01-9.359 5.975c-.388.595-.688 1.241-.895 1.92l-13.151 43.389c-35.209-4.825-67.052-20.436-92.073-43.392l9.621-9.629c2.928-2.93 2.926-7.679-.005-10.606-2.929-2.928-7.678-2.928-10.606.004l-9.612 9.62c-22.936-25.043-38.534-56.913-43.353-92.152l43.354-13.162c.68-.207 1.327-.508 1.922-.897 3.96-2.586 5.968-5.734 5.968-9.359 0-3.624-2.008-6.772-5.968-9.358-.595-.388-1.242-.69-1.922-.897l-43.354-13.162c4.819-35.239 20.417-67.11 43.353-92.152l9.612 9.62c1.465 1.466 3.385 2.199 5.306 2.199 1.918 0 3.837-.731 5.301-2.195 2.931-2.928 2.933-7.676.005-10.606l-9.621-9.629c25.021-22.956 56.864-38.568 92.073-43.392l13.151 43.389c.206.68.508 1.326.895 1.921 2.585 3.964 5.733 5.974 9.359 5.974s6.774-2.01 9.359-5.974c.387-.595.688-1.241.895-1.921l13.151-43.389c35.294 4.836 67.208 20.51 92.256 43.558l-9.63 9.638c-2.928 2.93-2.926 7.679.005 10.606 1.464 1.463 3.382 2.194 5.301 2.194 1.92 0 3.841-.733 5.306-2.199l9.602-9.61c22.845 25.015 38.383 56.815 43.191 91.968l-43.356 13.163c-.689.209-1.345.517-1.945.913-3.944 2.597-5.94 5.749-5.934 9.367.007 3.617 2.011 6.758 5.957 9.335.595.389 1.242.69 1.922.897l43.356 13.163c-4.819 35.239-20.42 67.109-43.356 92.151l-14.488-14.5c-2.928-2.929-7.677-2.933-10.606-.004-2.931 2.928-2.933 7.676-.005 10.606l14.497 14.509c-25.021 22.956-56.864 38.568-92.073 43.392zm24.722 81.566-7.169-23.653c39.751-5.972 75.438-24.608 102.815-51.654.326-.234.641-.49.934-.782.296-.296.554-.614.79-.943 27.023-27.398 45.642-63.112 51.61-102.891l23.627 7.173c-14.795 88.173-84.504 157.94-172.607 172.75z"/></svg>