<?xml version="1.0" encoding="UTF-8" standalone="no"?>
<!-- Created with Inkscape (http://www.inkscape.org/) -->

<svg
   viewBox="0 0 3228.6465 4064.6133"
   sodipodi:docname="banner.svg"
   inkscape:version="1.3.2 (091e20ef0f, 2023-11-25)"
   version="1.1"
   id="svg1"
   xmlns:inkscape="http://www.inkscape.org/namespaces/inkscape"
   xmlns:sodipodi="http://sodipodi.sourceforge.net/DTD/sodipodi-0.dtd"
   xmlns:xlink="http://www.w3.org/1999/xlink"
   xmlns="http://www.w3.org/2000/svg"
   xmlns:svg="http://www.w3.org/2000/svg">
  <defs
     id="defs1" />
  <sodipodi:namedview
     id="namedview1"
     pagecolor="#505050"
     bordercolor="#ffffff"
     borderopacity="1"
     inkscape:showpageshadow="0"
     inkscape:pageopacity="0"
     inkscape:pagecheckerboard="1"
     inkscape:deskcolor="#d1d1d1"
     inkscape:zoom="0.21243749"
     inkscape:cx="1002.6479"
     inkscape:cy="1965.284"
     inkscape:window-width="3440"
     inkscape:window-height="1363"
     inkscape:window-x="0"
     inkscape:window-y="40"
     inkscape:window-maximized="1"
     inkscape:current-layer="g299">
    <inkscape:page
       x="0"
       y="0"
       inkscape:label="1"
       id="page1"
       width="3228.6465"
       height="4064.6133"
       margin="0"
       bleed="0" />
  </sodipodi:namedview>
  <g
     id="g1"
     inkscape:groupmode="layer"
     inkscape:label="1"
     transform="translate(-1071.8316,-634.36004)">
    <g
       id="group-R5"
       transform="translate(19.491602)">
      <path
         id="path3"
         d="m 22850.9,11623.3 c -4741.4,154.7 -5234.7,2761.2 -10762.9,3505.8 -447.4,60.3 -2156.33,273.7 -4195.44,184.9 V 33272 H 32107.4 V 13889 c -2984,-215.6 -4832.5,-2410.1 -9256.5,-2265.7"
         style="fill:#ffb000;fill-opacity:1;fill-rule:nonzero;stroke:none"
         transform="matrix(0.13333333,0,0,-0.13333333,0,5333.3333)" />
      <path
         id="path4"
         d="m 7892.55,5306 v 10008 c 2039.11,88.8 3748.05,-124.6 4195.45,-184.9 5528.2,-744.6 6021.5,-3351.1 10762.9,-3505.8 4424,-144.4 6272.5,2050.1 9256.5,2265.7 V 5306 c 0,-302.8 -265.9,-548.3 -594,-548.3 H 8486.63 c -328.09,0 -594.08,245.5 -594.08,548.3"
         style="fill:#f44516;fill-opacity:1;fill-rule:nonzero;stroke:none"
         transform="matrix(0.13333333,0,0,-0.13333333,0,5333.3333)" />
      <path
         id="path5"
         d="M 32106.4,33272 H 7892.55 l 1734.44,1970.3 H 30300.5 L 32106.4,33272"
         style="fill:#ffbc36;fill-opacity:1;fill-rule:nonzero;stroke:none"
         transform="matrix(0.13333333,0,0,-0.13333333,0,5333.3333)" />
      <path
         id="path6"
         d="m 9175.76,34333.1 c 193.94,0 387.88,0 581.82,0 523.02,0 1046.12,0 1569.12,0 775.5,0 1551,0 2326.5,0 946.1,0 1892.2,0 2838.3,0 1032.7,0 2065.3,0 3098,0 1049.4,0 2098.9,0 3148.3,0 971.9,0 1943.8,0 2915.6,0 824.2,0 1648.4,0 2472.7,0 592.5,0 1185.1,0 1777.7,0 279.9,0 560.4,-5.6 840.3,0 12.2,0.3 24.5,0 36.7,0 93.7,0 93.9,160.4 0,160.4 -193.9,0 -387.9,0 -581.8,0 -523.1,0 -1046.1,0 -1569.2,0 -775.5,0 -1550.9,0 -2326.4,0 -946.1,0 -1892.2,0 -2838.4,0 -1032.6,0 -2065.3,0 -3097.9,0 -1049.5,0 -2098.9,0 -3148.4,0 -971.8,0 -1943.7,0 -2915.5,0 -824.3,0 -1648.5,0 -2472.7,0 -592.6,0 -1185.1,0 -1777.7,0 -279.95,0 -560.41,5.6 -840.3,0 -12.24,-0.2 -24.5,0 -36.74,0 -93.7,0 -93.87,-160.4 0,-160.4"
         style="fill:#ff8500;fill-opacity:1;fill-rule:nonzero;stroke:none"
         transform="matrix(0.13333333,0,0,-0.13333333,0,5333.3333)" />
      <path
         id="path7"
         d="m 26614.4,33287.9 c -4413.9,2.5 -8827.8,5 -13241.7,7.6 l 873.9,969.5 h 11547.5 c 273.4,-325.7 546.8,-651.4 820.3,-977.1"
         style="fill:#2ec9ed;fill-opacity:1;fill-rule:nonzero;stroke:none"
         transform="matrix(0.13333333,0,0,-0.13333333,0,5333.3333)" />
      <path
         id="path8"
         d="m 26667.9,33375.7 c -119.4,0 -238.7,0 -358,0 -321.9,0 -643.8,0 -965.7,0 -477.2,0 -954.4,0 -1431.6,0 -582.2,0 -1164.4,0 -1746.6,0 -635.5,0 -1271,0 -1906.4,0 -645.8,0 -1291.6,0 -1937.5,0 -598,0 -1196.1,0 -1794.1,0 -507.2,0 -1014.4,0 -1521.6,0 -364.7,0 -729.3,0 -1094,0 -170.9,0 -346.4,12.7 -517.1,0 -7.4,-0.6 -15.1,0 -22.6,0 17.2,-45.7 34.4,-91.3 51.5,-136.9 254.8,282.6 509.5,565.3 764.3,848 36.5,40.5 73,81 109.6,121.5 -17.2,-7.8 -34.4,-15.6 -51.5,-23.4 103.3,0 206.7,0 310,0 279.8,0 559.7,0 839.5,0 415.3,0 830.7,0 1246,0 504.7,0 1009.4,0 1514.1,0 552.7,0 1105.4,0 1658.1,0 557.9,0 1115.8,0 1673.7,0 522.3,0 1044.6,0 1566.9,0 439.7,0 879.3,0 1318.9,0 317.4,0 634.7,0 952.1,0 148,0 301.1,-12.5 448.9,0 6.3,0.5 12.9,0 19.3,0 -17.2,7.8 -34.4,15.6 -51.5,23.4 254.7,-282.6 509.5,-565.3 764.2,-848 36.6,-40.5 73.1,-81 109.6,-121.5 66.1,-73.4 169.1,40 103,113.4 -170.5,189.2 -341,378.3 -511.5,567.5 -98.9,109.7 -197.8,219.5 -296.7,329.2 -34.8,38.6 -68,91 -120.1,96.3 -50.6,5.2 -103.9,0 -154.7,0 -121.9,0 -243.8,0 -365.8,0 -416.1,0 -832.3,0 -1248.5,0 -583.3,0 -1166.6,0 -1749.9,0 -668.7,0 -1337.4,0 -2006,0 -678,0 -1355.9,0 -2033.9,0 -609.5,0 -1218.9,0 -1828.4,0 -463.3,0 -926.5,0 -1389.8,0 -239.3,0 -478.5,0 -717.8,0 -15.5,0 -31.9,1.8 -47.3,0 -54.2,-6.1 -91.3,-64.9 -127.6,-105.2 -214,-237.4 -428,-474.9 -642,-712.3 -52.7,-58.5 -105.4,-117 -158.2,-175.5 -44.3,-49.3 -11.7,-136.9 51.5,-136.9 119.4,0 238.7,0 358.1,0 321.8,0 643.7,0 965.6,0 477.2,0 954.4,0 1431.6,0 582.2,0 1164.4,0 1746.7,0 635.4,0 1270.9,0 1906.3,0 645.9,0 1291.7,0 1937.5,0 598,0 1196.1,0 1794.1,0 507.2,0 1014.4,0 1521.6,0 364.7,0 729.3,0 1094,0 172.2,0 344.9,-3.7 517.1,0 7.5,0.1 15.1,0 22.6,0 93.7,0 93.8,160.4 0,160.4"
         style="fill:#fccf75;fill-opacity:1;fill-rule:nonzero;stroke:none"
         transform="matrix(0.13333333,0,0,-0.13333333,0,5333.3333)" />
      <path
         id="path9"
         d="m 26645.8,26241.051 c 0,-833.3 -585.9,-1407 -1128,-1102.6 -1191.7,669.1 -3095,1456.3 -5519.7,1456.3 -2424.8,0 -4328,-787.2 -5519.7,-1456.3 -542.1,-304.4 -1128,269.3 -1128,1102.6 V 33308.3 h 13295.4 v -7067.249"
         style="fill:#1bbdef;fill-opacity:1;fill-rule:nonzero;stroke:none"
         transform="matrix(0.13333333,0,0,-0.13333333,0,5333.3333)"
         sodipodi:nodetypes="ccscsccc" />
      <path
         id="path10"
         d="m 26573,26173.355 c -3,-455.2 -230,-1066 -709,-1103.3 -201.6,-15.8 -368.4,104.8 -542.9,197.5 -190.9,101.4 -384.4,197 -579.8,287.5 -957.7,443.5 -1966.3,751.9 -2994.8,914.1 -1248.1,196.9 -2520.6,181.9 -3764.5,-45.5 -1001.9,-183.2 -1981,-506.3 -2910.9,-955.4 -184.5,-89.1 -366.9,-183.2 -547.1,-282.4 -87.9,-48.5 -173.4,-97.7 -272.3,-112.5 -97.1,-14.6 -196.5,0.9 -287.3,40.2 -376.7,162.8 -539.4,651.8 -541.2,1064.4 -0.108,2704.731 0,4376.612 0,7081.345 v 49 c -24.3,-26.8 -48.5,-53.5 -72.8,-80.2 h 358 965.7 1431.6 1746.7 1906.4 1937.5 1794.2 1521.6 1094 c 171,0 346.3,-12.3 517.1,0 7.4,0.5 15.1,0 22.6,0 -24.3,26.7 -48.6,53.4 -72.8,80.2 v -817.9 c 48.948,-2444.074 -65.387,-3859.712 0,-6303.245 0.1,-4.6 0,-9.2 0,-13.8 0,-103.2 145.6,-103.3 145.6,0 V 32302.7 c 0,329.8 10.9,662.1 0,991.8 -0.2,4.6 0,9.2 0,13.8 0,43.3 -33.4,80.1 -72.8,80.1 h -358.1 -965.6 -1431.7 -1746.6 -1906.4 -1937.5 -1794.2 -1521.6 -1094 c -172.3,0 -344.9,3.7 -517.1,0 -7.5,-0.1 -15.1,0 -22.6,0 -39.4,0 -72.8,-36.7 -72.8,-80.1 v -7085.945 c 0,-308.9 57.6,-618.8 219,-877.1 120.1,-192 291.8,-351.5 499.7,-411.5 214.6,-61.9 403.3,4.4 594.8,110.1 852.1,469.9 1755.7,825.9 2684.2,1062.2 1224.7,311.8 2492.3,409.4 3744.8,293.8 1110.1,-102.4 2206.4,-377.1 3249,-809.2 400.3,-166 792.4,-355.6 1174.2,-568 189.8,-105.6 392.3,-151.2 599.2,-74.9 205.7,75.9 372.2,244 485.2,445 131.1,233.2 189.1,508.2 190.9,780.6 0.7,103.3 -145,103.4 -145.6,0"
         style="fill:#fccf75;fill-opacity:1;fill-rule:nonzero;stroke:none"
         transform="matrix(0.13333333,0,0,-0.13333333,0,5333.3333)"
         sodipodi:nodetypes="ccccccccccccccccccccccscccccssscssccccccccscsssccccccccscc" />
      <path
         id="path51"
         d="m 8715.57,31587.9 c 207.16,79.7 273.92,-254.8 282.41,-475.2 23.5,-595.5 -42.77,-1214.8 -50.67,-1810.2 -7.17,-557.6 -13.91,-1114.2 -13.36,-1669.6 -0.46,-203.1 43.76,-568.4 -109.43,-674.8 -214.65,-149.8 -395.16,46.3 -409.5,355.9 -37.46,798.7 -43.16,1597.6 -34.66,2393 4.25,397.4 8.63,795.2 21.18,1191 8.91,267 103.85,596.9 302.98,685.3 3.75,1.6 7.44,3.1 11.05,4.6"
         style="fill:#ffffff;fill-opacity:1;fill-rule:nonzero;stroke:none"
         transform="matrix(0.13333333,0,0,-0.13333333,0,5333.3333)" />
      <path
         id="path52"
         d="m 8730.29,31513.3 c 211.17,64.1 215.61,-382.4 217.48,-573.7 4.53,-342.5 -15.55,-684.2 -32.72,-1024.9 -35.04,-700.8 -34.4,-1403.8 -35.62,-2103.1 -0.44,-121.8 2.16,-242.8 4.31,-364.4 2.73,-112.9 10.95,-267.9 -39.07,-364.7 -52.41,-101.3 -175.56,-124.8 -252.45,-68.8 -105.57,76.7 -120.08,243.6 -126.86,392.7 -31.69,726.2 -38,1453 -31.58,2177.3 3.53,399 7.85,797.5 18.94,1195.1 7.8,280.5 54.86,642.6 277.57,734.5 67.36,27.8 38.27,177.2 -29.44,149.1 -188.73,-78.4 -300.62,-334.3 -338.38,-593.6 -23.88,-162.5 -20.44,-332 -24.18,-497.1 -4.95,-228 -8.02,-456.4 -10.57,-685 -5.22,-457.1 -7.68,-915.3 -1.87,-1374.4 2.63,-214.9 7.02,-430 13.48,-645.2 6.11,-212.1 -2.18,-447.1 31.1,-655.6 38.18,-238.4 181.54,-410.3 356.47,-376.3 214.68,41.5 268.65,286.3 267.13,556.4 -4.93,807.3 -13.22,1621.3 25.9,2433.5 21.72,449 67.78,919.8 26.85,1370.7 -24.18,270 -129.12,533.2 -345.93,466.6 -68.68,-21 -39.18,-169.7 29.44,-149.1"
         style="fill:#ffffff;fill-opacity:1;fill-rule:nonzero;stroke:none"
         transform="matrix(0.13333333,0,0,-0.13333333,0,5333.3333)" />
      <path
         id="path53"
         d="m 26918,33214.9 c 624.4,-3.7 1248.8,-7.4 1873.1,-11.1 624.4,-3.8 1248.7,-7.5 1873.1,-11.2 353.3,-2.1 706.6,-4.2 1059.9,-6.3 93.8,-0.6 93.9,159.8 0,160.3 -624.3,3.8 -1248.7,7.5 -1873,11.2 -624.4,3.7 -1248.7,7.5 -1873.1,11.2 -353.3,2.1 -706.6,4.2 -1060,6.3 -93.7,0.6 -93.8,-159.8 0,-160.4"
         style="fill:#ff8500;fill-opacity:1;fill-rule:nonzero;stroke:none"
         transform="matrix(0.13333333,0,0,-0.13333333,0,5333.3333)" />
      <path
         id="path54"
         d="m 8221.41,33214.9 c 624.35,-3.7 1248.71,-7.4 1873.09,-11.1 624.3,-3.8 1248.7,-7.5 1873,-11.2 353.4,-2.1 706.7,-4.2 1060,-6.3 93.7,-0.6 93.8,159.8 0,160.3 -624.4,3.8 -1248.7,7.5 -1873.1,11.2 -624.3,3.7 -1248.69,7.5 -1873.04,11.2 -353.32,2.1 -706.64,4.2 -1059.95,6.3 -93.73,0.6 -93.85,-159.8 0,-160.4"
         style="fill:#ff8500;fill-opacity:1;fill-rule:nonzero;stroke:none"
         transform="matrix(0.13333333,0,0,-0.13333333,0,5333.3333)" />
      <path
         id="path55"
         d="M 26560.3,32743.5 H 13423.2 v 490.3 h 13137.1 v -490.3"
         style="fill:#1bbdef;fill-opacity:1;fill-rule:nonzero;stroke:none"
         transform="matrix(0.13333333,0,0,-0.13333333,0,5333.3333)" />
      <path
         id="path56"
         d="M 26560.3,33234.2 H 13423.2 l 455.1,508.3 12246.7,0.1 435.3,-508.4"
         style="fill:#2ec9ed;fill-opacity:1;fill-rule:nonzero;stroke:none"
         transform="matrix(0.13333333,0,0,-0.13333333,0,5333.3333)" />
      <path
         id="path57"
         d="m 8686.02,5967.2 c -33.61,7.2 3.03,-15.7 3.03,-15.7 -18.12,106.3 10.41,242.4 -91.53,321 -27.86,11.9 -65.03,13.6 -83.39,-6.5 -91.82,-100.7 -53.31,-291.7 20.21,-400.9 63.86,-119.2 181.91,-9.9 151.68,102.1"
         style="fill:#e02803;fill-opacity:1;fill-rule:nonzero;stroke:none"
         transform="matrix(0.13333333,0,0,-0.13333333,0,5333.3333)" />
      <path
         id="path58"
         d="m 9505.91,6844.3 c 78.83,-166 6.89,-14.6 6.89,-14.6 -34.91,107.5 29.2,295.7 -133.92,313 -38.46,1.5 -78.35,-39.2 -89.04,-70.6 -4.27,-127.1 -50.57,-358.5 121.81,-386.7 66.96,-13.4 118.24,80 94.26,158.9"
         style="fill:#e02803;fill-opacity:1;fill-rule:nonzero;stroke:none"
         transform="matrix(0.13333333,0,0,-0.13333333,0,5333.3333)" />
      <path
         id="path59"
         d="m 8697.72,7841 c 1.61,-2.6 0.89,-23.7 0.89,-23.7 -15.67,106.6 18.52,264.3 -85.48,321.6 -56.98,23.5 -106.84,-27.5 -118.24,-80 -32.05,-94.2 -25.64,-189.9 9.27,-297.3 26.35,-75.3 121.8,-100.4 171.67,-49.5 29.91,30.6 41.3,83.2 21.89,128.9"
         style="fill:#e02803;fill-opacity:1;fill-rule:nonzero;stroke:none"
         transform="matrix(0.13333333,0,0,-0.13333333,0,5333.3333)" />
      <path
         id="path60"
         d="m 8596.68,13710.5 c 25.89,-146.1 -24.5,-279.8 -112.55,-298.8 -88.06,-18.9 -180.42,84.2 -206.32,230.3 -25.88,146 24.51,279.8 112.56,298.7 88.06,19 180.43,-84.1 206.31,-230.2"
         style="fill:#ffffff;fill-opacity:1;fill-rule:nonzero;stroke:none"
         transform="matrix(0.13333333,0,0,-0.13333333,0,5333.3333)" />
      <path
         id="path61"
         d="m 8675.02,11793.4 c 0.61,-148.9 -71.64,-269.9 -161.35,-270.3 -89.71,-0.5 -162.93,119.8 -163.54,268.7 -0.6,148.8 71.64,269.8 161.36,270.3 89.71,0.4 162.92,-119.9 163.53,-268.7"
         style="fill:#ffffff;fill-opacity:1;fill-rule:nonzero;stroke:none"
         transform="matrix(0.13333333,0,0,-0.13333333,0,5333.3333)" />
      <path
         id="path62"
         d="m 31965.5,32944.4 c 0,-169 0,-338 0,-507 0,-455.8 0,-911.6 0,-1367.3 0,-675.7 0,-1351.5 0,-2027.2 0,-824.4 0,-1648.8 0,-2473.2 0,-899.8 0,-1799.6 0,-2699.4 0,-914.4 0,-1828.9 0,-2743.3 0,-846.8 0,-1693.7 0,-2540.5 0,-718.2 0,-1436.4 0,-2154.6 0,-516.3 0,-1032.6 0,-1549 0,-243.9 -3.8,-488.3 0,-732.2 0.2,-10.6 0,-21.3 0,-32 0,-70.6 99.7,-70.7 99.7,0 0,169 0,338 0,507 0,455.8 0,911.5 0,1367.3 0,675.7 0,1351.4 0,2027.1 0,824.4 0,1648.8 0,2473.2 0,899.8 0,1799.6 0,2699.4 0,914.5 0,1828.9 0,2743.4 0,846.8 0,1693.6 0,2540.5 0,718.2 0,1436.3 0,2154.5 0,516.4 0,1032.7 0,1549.1 0,243.9 3.8,488.2 0,732.1 -0.2,10.7 0,21.4 0,32.1 0,70.5 -99.7,70.7 -99.7,0"
         style="fill:#ff8500;fill-opacity:1;fill-rule:nonzero;stroke:none"
         transform="matrix(0.13333333,0,0,-0.13333333,0,5333.3333)" />
      <path
         id="path63"
         d="m 7942.64,32944.4 c 0,-157 0,-314 0,-470.9 0,-423.3 0,-846.6 0,-1269.9 0,-627.5 0,-1255.1 0,-1882.6 0,-765.7 0,-1531.4 0,-2297 0,-835.7 0,-1671.4 0,-2507 0,-849.3 0,-1698.6 0,-2547.9 0,-786.5 0,-1573 0,-2359.4 0,-667 0,-1334 0,-2001.1 0,-479.5 0,-959 0,-1438.6 0,-226.5 -3.65,-453.5 0,-680 0.16,-9.9 0,-19.8 0,-29.7 0,-70.6 99.64,-70.7 99.64,0 0,156.9 0,313.9 0,470.8 0,423.3 0,846.6 0,1269.9 0,627.5 0,1255.1 0,1882.7 0,765.6 0,1531.3 0,2296.9 0,835.7 0,1671.4 0,2507.1 0,849.2 0,1698.5 0,2547.8 0,786.5 0,1573 0,2359.5 0,667 0,1334 0,2001 0,479.5 0,959.1 0,1438.6 0,226.6 3.65,453.5 0,680 -0.16,9.9 0,19.8 0,29.8 0,70.5 -99.64,70.7 -99.64,0"
         style="fill:#ff8500;fill-opacity:1;fill-rule:nonzero;stroke:none"
         transform="matrix(0.13333333,0,0,-0.13333333,0,5333.3333)" />
      <path
         id="path64"
         d="m 31576.8,29236.2 c 2.3,-10.4 2.3,-10.4 12.4,-22.8 -10.1,12.4 -9.1,35.9 -19.2,48.2 27.3,-107.5 5.6,-353.9 148.1,-279.1 121.2,76 71.7,408.7 -78.8,393.3 -53.9,-8.9 -88.6,-66 -62.5,-139.6"
         style="fill:#ff8500;fill-opacity:1;fill-rule:nonzero;stroke:none"
         transform="matrix(0.13333333,0,0,-0.13333333,0,5333.3333)" />
      <path
         id="path65"
         d="m 31540.1,27410.1 c 1.1,2.2 -9.1,14.6 -9.1,14.6 28.4,-84.1 -34.9,-304.7 105.5,-276.9 161.7,26.7 140.7,275.4 49.3,386.4 -20.3,24.7 -51.8,38.2 -84.4,28.1 -55,-32.4 -89.6,-89.5 -61.3,-152.2"
         style="fill:#ff8500;fill-opacity:1;fill-rule:nonzero;stroke:none"
         transform="matrix(0.13333333,0,0,-0.13333333,0,5333.3333)" />
      <path
         id="path66"
         d="m 30751.6,26540.8 c 2.2,18.1 14.5,52.8 15.5,76.3 -15.4,-105.3 -42,-221.7 17.9,-319.3 20.4,-24.7 74.3,-15.8 106.8,-5.7 111,88.3 111.3,335.8 -24.9,402.1 -63,27 -163.8,-73.7 -115.3,-153.4"
         style="fill:#ff8500;fill-opacity:1;fill-rule:nonzero;stroke:none"
         transform="matrix(0.13333333,0,0,-0.13333333,0,5333.3333)" />
      <path
         id="path67"
         d="m 31473.4,25657.2 c 43.2,-0.1 1.5,25.7 1.5,25.7 -5.2,-117.6 -15.7,-352.8 115.6,-289.2 142.5,74.9 125.6,417.7 -46.3,403.4 -53.9,-8.9 -88.5,-66 -70.8,-139.9"
         style="fill:#ff8500;fill-opacity:1;fill-rule:nonzero;stroke:none"
         transform="matrix(0.13333333,0,0,-0.13333333,0,5333.3333)" />
      <path
         id="path68"
         d="m 30911,28140.8 c 9.6,0.6 10.7,24.1 10.7,24.1 -5.3,-117.6 -15.7,-352.8 115.6,-289.2 131.3,63.7 74.5,231.8 58.4,350.5 -18.2,71.7 -103.7,76.4 -158.6,44 -33.7,-33.6 -57.1,-79.5 -26.1,-129.4"
         style="fill:#ff8500;fill-opacity:1;fill-rule:nonzero;stroke:none"
         transform="matrix(0.13333333,0,0,-0.13333333,0,5333.3333)" />
      <path
         id="path69"
         d="m 26572.7,33215.3 h -20.3 v 18.6 h 20.3 v -18.6"
         style="fill:#1bbdef;fill-opacity:1;fill-rule:nonzero;stroke:none"
         transform="matrix(0.13333333,0,0,-0.13333333,0,5333.3333)" />
      <path
         id="path70"
         d="m 26477.9,33392.6 c 39.8,-52.5 79.6,-105 119.4,-157.5 -26.8,0 -53.6,0 -80.4,0 -37.3,52.9 -74.5,105.9 -111.7,158.8 24.2,-0.4 48.5,-0.8 72.7,-1.3"
         style="fill:#2ec9ed;fill-opacity:1;fill-rule:nonzero;stroke:none"
         transform="matrix(0.13333333,0,0,-0.13333333,0,5333.3333)" />
      <image
         preserveAspectRatio="none"
         inkscape:svg-dpi="96"
         width="2022.9399"
         height="2022.9399"
         xlink:href="logo.svg"
         id="image1"
         x="1657.8021"
         y="1614.9224" />
      <text
         xml:space="preserve"
         style="font-size:478.548px;line-height:0.85;font-family:sans-serif;text-align:center;letter-spacing:16.27px;text-anchor:middle;fill:#fcfcfc;fill-opacity:1;stroke:#ffffff;stroke-width:15.659;stroke-dasharray:none;stroke-opacity:1"
         x="2656.1562"
         y="1290.7126"
         id="text71"><tspan
           sodipodi:role="line"
           id="tspan71"
           x="2656.1562"
           y="1290.7126"
           style="font-style:normal;font-variant:normal;font-weight:normal;font-stretch:normal;font-size:478.548px;line-height:0.85;font-family:Allegrand;-inkscape-font-specification:'Allegrand, Normal';font-variant-ligatures:normal;font-variant-caps:normal;font-variant-numeric:normal;font-variant-east-asian:normal;letter-spacing:16.27px;fill:#fcfcfc;fill-opacity:1;stroke:#ffffff;stroke-width:15.659;stroke-dasharray:none;stroke-opacity:1">Serial</tspan><tspan
           sodipodi:role="line"
           x="2664.2913"
           y="1712.0859"
           id="tspan72"
           style="font-style:normal;font-variant:normal;font-weight:normal;font-stretch:normal;font-size:478.548px;line-height:0.85;font-family:Allegrand;-inkscape-font-specification:'Allegrand, Normal';font-variant-ligatures:normal;font-variant-caps:normal;font-variant-numeric:normal;font-variant-east-asian:normal;letter-spacing:16.27px;fill:#fcfcfc;fill-opacity:1;stroke:#ffffff;stroke-width:15.659;stroke-dasharray:none;stroke-opacity:1">Mobbing</tspan></text>
      <g
         id="g299"
         transform="matrix(8.4706756,0,0,8.4706756,-7159.1876,2205.6093)">
			<ellipse
   fill="#59a2b6"
   cx="1156.8"
   cy="277.10001"
   rx="162.2"
   ry="28.799999"
   id="ellipse245"
   style="fill:#010303;fill-opacity:0.21336763" />

			<g
   id="g298">
				<path
   fill="#c9cacc"
   d="m 1087.1,259.7 0.2,11.2 c 0,0 3,4.3 6,4.8 2.9,0.4 26.1,10.7 80.3,9.5 54.2,-1.2 61.1,-18.9 61.1,-18.9 0,0 0.4,-5.9 0.2,-11.7 -0.1,-6 -147.8,5.1 -147.8,5.1 z"
   id="path245" />

				<path
   fill="#dce7e8"
   d="m 1123.5,148.7 -110.6,17.9 c 0,0 13.2,83.9 103.3,105.1 90.1,21.2 155.3,-25.6 166.3,-52.7 11,-27.1 16.8,-44.7 12.5,-55.7 -4.5,-11 -171.5,-14.6 -171.5,-14.6 z"
   id="path246" />

				<ellipse
   fill="#f2f4f3"
   cx="1154.2"
   cy="166.60001"
   rx="141.39999"
   ry="58.200001"
   id="ellipse246" />

				<ellipse
   fill="#c9cacc"
   cx="1154.2"
   cy="166.60001"
   rx="134.10001"
   ry="55.200001"
   id="ellipse247" />

				<path
   fill="#315c83"
   d="m 1249.4,229.6 c -4.4,0 -8.3,-0.8 -11,-2.2 -4.2,-2.1 -8.7,-3 -13.2,-3 -15.4,0.1 -31.2,9.7 -43.7,17 -4.7,2.8 -10.5,4 -16.7,4 -12,0 -25.5,-4.6 -34.7,-9.3 -7.3,-3.7 -15.6,-5.1 -24.8,-5.1 -10.9,0 -23,2 -36.3,4.8 -1.3,0.3 -2.6,0.4 -4,0.4 -7.5,0.1 -16.1,-4.3 -23.6,-10 4.6,5.6 9.9,11.1 16,16.3 2.5,0.6 5,1 7.6,1 1.8,0 3.7,-0.2 5.5,-0.6 13.2,-2.8 24.8,-4.6 34.8,-4.6 8.4,0 15.5,1.3 21.5,4.3 10,5 24.2,10 38,10.1 7.1,0 14.2,-1.4 20.4,-5 12.3,-7.4 27.7,-16.1 40,-16 3.6,0 6.8,0.7 9.9,2.2 4.1,2.1 9,3 14.3,3 8.2,0 17.4,-2.2 26,-6.6 3.2,-4 5.6,-7.9 7,-11.4 0.4,-1 0.8,-2 1.2,-2.9 -2.3,2.1 -4.9,4 -7.6,5.6 -8.5,5.4 -18.5,8.1 -26.6,8 z"
   id="path247" />

				<path
   fill="#8ec04f"
   d="m 1249.4,235.5 c -4.4,0 -8.3,-0.8 -11,-2.2 -4.2,-2.1 -8.7,-3 -13.2,-3 -15.4,0.1 -31.2,9.7 -43.7,17 -4.7,2.8 -10.5,4 -16.7,4 -12,0 -25.5,-4.6 -34.7,-9.3 -7.3,-3.7 -15.6,-5.1 -24.8,-5.1 -10.9,0 -23,2 -36.3,4.8 -1.3,0.3 -2.6,0.4 -4,0.4 -3.5,0 -7.2,-0.9 -11,-2.5 3.7,3.4 7.7,6.6 12,9.7 1.5,-0.1 3,-0.2 4.4,-0.5 13.2,-2.8 24.8,-4.6 34.8,-4.6 8.4,0 15.5,1.3 21.5,4.3 10,5 24.2,10 38,10.1 7.1,0 14.2,-1.4 20.4,-5 12.3,-7.4 27.7,-16.1 40,-16 3.6,0 6.8,0.7 9.9,2.2 4.1,2.1 9,3 14.3,3 5.4,0 11.2,-1 16.9,-2.8 5.3,-4.8 9.5,-9.7 12.5,-14.2 -0.9,0.6 -1.8,1.3 -2.8,1.8 -8.4,5.2 -18.4,7.9 -26.5,7.9 z"
   id="path248" />

				<g
   id="g249">
					<path
   fill="#ffd361"
   d="m 1283.2,153.4 c 0,0 -4.4,-1.1 -13.6,-5.1 -9.2,-4 -4,-1.1 -14.7,-4.8 -10.6,-3.7 -26,1.5 -26,1.5 0,0 -10.3,-6.6 -16.1,-8.8 -5.9,-2.2 -9.9,-4 -14.3,-5.1 -4.4,-1.1 -3.7,0.4 -11.7,0.4 h -2.9 c 0,0 -0.6,0 -1.6,0 h -6.1 c -4,0 -21.6,-1.1 -23.4,-1.8 -1.8,-0.7 -5.5,-1.8 -8.8,-4 -3.3,-2.2 -2.9,0 -2.9,0 0,0 -1.5,0 -11,3.3 -9.5,3.3 -49.1,14.7 -49.1,14.7 0,0 -9.5,1.5 -16.1,1.5 -6.6,0 -8.4,2.2 -11.7,2.9 -3.3,0.7 -8.8,5.9 -10.6,7.7 -1.8,1.8 -0.4,1.8 -10.3,3.3 -5.5,0.8 -9.3,7 -11.6,12.3 5.7,28.3 63.3,50.6 133.6,50.6 74,0 134.1,-24.7 134.1,-55.2 0,-2.7 -0.5,-5.4 -1.4,-8 -2.2,-3.1 -3.8,-5.4 -3.8,-5.4 z"
   id="path249" />

				</g>

				<path
   fill="#ddb042"
   d="m 1203.3,183.4 c -3,0 -38.7,12.7 -38.7,12.7 l -7,1.7 c 0,0 -2.7,3.3 15.3,4.3 18,1 28.3,-1.3 37,-9 8.7,-7.7 -3.6,-9.7 -6.6,-9.7 z"
   id="path250" />

				<path
   fill="#ddb042"
   d="m 1156.3,169.4 c -6.3,-3.3 -41.7,-4.3 -41.7,-4.3 0,0 0,-0.3 -3,-0.3 -3,0 -3,0 -3,0 0,0 5.3,7.7 19.7,10.7 14.4,3 23.7,3.3 27.3,0.3 3.6,-3 7.1,-3.2 0.7,-6.4 z"
   id="path251" />

				<path
   fill="#ddb042"
   d="m 1095.3,149.1 c 18.3,0 25.7,-2 23,-2.3 -2.7,-0.3 -20.7,1.3 -30.3,-2 -1.7,-0.6 -3.5,-1.2 -5.3,-1.7 -1.1,0.3 -1.7,0.5 -1.7,0.5 0,0 -9.5,1.5 -16.1,1.5 -6.6,0 -8.4,2.2 -11.7,2.9 -0.5,0.1 -1,0.3 -1.6,0.6 0.2,0 0.3,-0.1 0.5,-0.1 11.2,-3.1 24.9,0.6 43.2,0.6 z"
   id="path252" />

				<path
   fill="#ddb042"
   d="m 1283.2,153.4 c 0,0 -4.4,-1.1 -13.6,-5.1 -9.2,-4 -4,-1.1 -14.7,-4.8 -10.6,-3.7 -26,1.5 -26,1.5 0,0 -1.6,-1 -3.9,-2.4 -6,1.8 -10.8,4.1 -13.4,6.8 0,0 -4.7,3.7 -6.3,5.7 -1.6,2 8.3,-2 17.3,-4.3 9,-2.3 17.7,-4 24.7,-2.7 7,1.3 8.3,4.7 -7.3,8.3 -15.6,3.6 -25.7,4.7 -25.3,6.3 0.3,1.7 19.7,-2 33,-3.3 13.3,-1.3 20,-4.7 24.7,-2.7 4.7,2 -1.3,8 -1.3,8 0,0 10.3,2.3 11,1.3 0.7,-1 -14,31 -40,36.3 -26,5.3 -43.7,6.7 -77,6.7 -33.3,0 15.7,-3.3 31.7,-4.7 16,-1.4 -20.3,-1.3 -53,1 -32.7,2.3 -59,-6.7 -65.7,-10.7 -6.7,-4 -2.3,6 16.7,10 19,4 43.7,6 50,6.7 6.3,0.7 -16.7,6 -46.3,-0.7 -29.6,-6.7 -60.7,-23.7 -62,-32.3 -1.3,-8.6 3,-13.3 8,-14.7 5,-1.4 10.7,-0.7 14,-3 3.3,-2.3 -7,-1.3 -9,-1.7 -1.3,-0.2 -4.6,-3.4 -3.6,-6.5 -1.4,1.2 -2.6,2.3 -3.3,3 -1.8,1.8 -0.4,1.8 -10.3,3.3 -5.5,0.8 -9.3,7 -11.6,12.3 5.7,28.3 63.3,50.6 133.6,50.6 74,0 134.1,-24.7 134.1,-55.2 0,-2.7 -0.5,-5.4 -1.4,-8 -2.2,-2.7 -3.8,-5 -3.8,-5 z"
   id="path253" />

				<path
   fill="#ddb042"
   d="m 1234.7,185.8 c -9.7,-1.3 -15.3,0.3 -15.3,0.3 l -3.7,0.7 c 0,0 2,4.7 13.7,5 11.7,0.3 14.9,-4.7 5.3,-6 z"
   id="path254" />

				<path
   fill="#ddb042"
   d="m 1196,169.8 c -5.3,-3.7 -14.3,-2.6 -14.3,-2.6 l -11.9,8.2 c 0,0 -2.8,4.4 8.9,3 11.7,-1.4 22.6,-5 17.3,-8.6 z"
   id="path255" />

				<path
   fill="#ddb042"
   d="m 1149.7,146.8 c -2.7,-1.3 -4,-1.7 -4,-1.7 l -20.8,4.2 c 0,0 9.2,4.5 15.5,2.8 6.3,-1.7 11.9,-4 9.3,-5.3 z"
   id="path256" />

				<path
   fill="#ddb042"
   d="m 1138,194.8 c -5.3,-2.3 -28,-2 -29,-0.3 0,0 6,8 19,7.7 13,-0.3 16.7,-1.7 16.7,-3 0,-1.3 -1.4,-2.1 -6.7,-4.4 z"
   id="path257" />

				<path
   fill="#ddb042"
   d="m 1092,165.4 c -5,-2 -11.3,-2 -23,2.7 0,0 -1.3,4.7 11.3,4.7 12.6,0 16.7,-5.4 11.7,-7.4 z"
   id="path258" />

				<g
   id="g260">
					<path
   fill="#e6e6e6"
   d="m 1271.4,109.5 -76.6,35.9 c 0,0 5.9,-1.1 10.6,1.1 4.8,2.2 1.5,7.7 1.5,7.7 l 73.6,-40.3 0.4,-1.8 c 0,0 0,0 -1.5,-2.2 -1.4,-2.2 -8,-0.4 -8,-0.4 z"
   id="path259" />

					<path
   fill="#b3b3b3"
   d="m 1275.5,108.8 c 0.8,1.3 1.1,3.3 -1.2,5.8 -4.1,4.4 -58.4,30.8 -66.4,34.7 0.5,2.3 -1,4.9 -1,4.9 l 73.6,-40.3 0.4,-1.8 c 0,0 0,0 -1.5,-2.2 -0.6,-1 -2.2,-1.2 -3.9,-1.1 z"
   id="path260" />

				</g>

				<g
   id="g263">
					<path
   fill="#662d91"
   d="m 1133.8,134.9 c -5.5,0 -10,4.5 -10,10 0,1.6 0.4,3 1,4.4 2.6,0.8 6,1.3 10.5,1.1 4,-0.2 6.5,-1.2 8.1,-2.5 0.3,-0.9 0.4,-1.9 0.4,-3 0,-5.5 -4.4,-10 -10,-10 z"
   id="path261" />

					<path
   fill="#381850"
   d="m 1132.3,137.1 c -5,1.5 2.3,6.5 5.7,6.2 3.4,-0.3 2.7,-2 2.7,-2 0,0 -3.4,-5.7 -8.4,-4.2 z"
   id="path262" />

					<path
   fill="#4a287a"
   d="m 1128.8,145.4 c -2.9,-0.7 -4.3,-1.7 -4.8,-2.7 -0.2,0.7 -0.2,1.4 -0.2,2.2 0,1.6 0.4,3 1,4.4 2.6,0.8 6,1.3 10.5,1.1 4,-0.2 6.5,-1.2 8.1,-2.5 0.3,-0.9 0.4,-1.9 0.4,-3 0,-0.4 0,-0.9 -0.1,-1.3 -3.1,1.8 -8.4,3.4 -14.9,1.8 z"
   id="path263" />

				</g>

				<g
   id="g266">
					<path
   fill="#662d91"
   d="m 1176.2,159.7 c -5.4,0.9 -9.1,6.1 -8.1,11.6 0.3,1.5 0.9,2.9 1.7,4.1 2.6,0.3 6.1,0.3 10.5,-0.7 3.9,-0.9 6.2,-2.3 7.5,-3.9 0.1,-1 0.1,-2 -0.1,-3 -0.9,-5.4 -6.1,-9 -11.5,-8.1 z"
   id="path264" />

					<path
   fill="#381850"
   d="m 1175.1,162.1 c -4.7,2.3 3.4,6 6.6,5.1 3.2,-0.9 2.3,-2.4 2.3,-2.4 0,0 -4.3,-5 -8.9,-2.7 z"
   id="path265" />

					<path
   fill="#4a287a"
   d="m 1187.4,166.6 c -2.8,2.3 -7.7,4.8 -14.4,4.3 -3,-0.2 -4.5,-0.9 -5.1,-1.8 0,0.7 0,1.4 0.1,2.2 0.3,1.5 0.9,2.9 1.7,4.1 2.6,0.3 6.1,0.3 10.5,-0.7 3.9,-0.9 6.2,-2.3 7.5,-3.9 0.1,-1 0.1,-2 -0.1,-3 0.1,-0.4 0,-0.8 -0.2,-1.2 z"
   id="path266" />

				</g>

				<g
   id="g269">
					<path
   fill="#662d91"
   d="m 1224.4,174.3 c -5.5,0.5 -9.6,5.4 -9.1,10.9 0.1,1 0.3,2 0.7,2.9 1.7,1.2 4.2,2 8.3,1.8 4.5,-0.2 7.9,-1.1 10.3,-2.1 0.5,-1.4 0.8,-2.9 0.6,-4.4 -0.4,-5.5 -5.3,-9.6 -10.8,-9.1 z"
   id="path267" />

					<path
   fill="#381850"
   d="m 1226.1,176.3 c -5.1,-1 -7.9,4.9 -7.9,4.9 0,0 -0.5,1.7 2.8,1.8 3.4,0 10.2,-5.6 5.1,-6.7 z"
   id="path268" />

					<path
   fill="#4a287a"
   d="m 1234.8,181.2 c -0.4,1 -1.7,2.1 -4.5,3.1 -6.3,2.2 -11.7,1 -15,-0.5 0,0.4 0,0.9 0,1.3 0.1,1 0.3,2 0.7,2.9 1.7,1.2 4.2,2 8.3,1.8 4.5,-0.2 7.9,-1.1 10.3,-2.1 0.5,-1.4 0.8,-2.9 0.6,-4.4 0,-0.7 -0.1,-1.4 -0.4,-2.1 z"
   id="path269" />

				</g>

				<g
   id="g272">
					<path
   fill="#662d91"
   d="m 1075.3,155.6 c -5.5,0.6 -9.5,5.5 -8.9,11 0.1,1 0.4,2 0.7,2.9 1.7,1.1 4.3,1.9 8.3,1.7 4.5,-0.3 7.9,-1.2 10.3,-2.2 0.5,-1.4 0.7,-2.9 0.6,-4.4 -0.6,-5.5 -5.5,-9.5 -11,-9 z"
   id="path270" />

					<path
   fill="#381850"
   d="m 1077,157.7 c -5.1,-1 -7.9,5 -7.9,5 0,0 -0.5,1.7 2.9,1.7 3.4,0 10.1,-5.8 5,-6.7 z"
   id="path271" />

					<path
   fill="#4a287a"
   d="m 1085.8,162.4 c -0.4,1 -1.6,2.1 -4.5,3.1 -6.3,2.2 -11.7,1.1 -15,-0.3 0,0.4 0,0.9 0,1.3 0.1,1 0.4,2 0.7,2.9 1.7,1.1 4.3,1.9 8.3,1.7 4.5,-0.3 7.9,-1.2 10.3,-2.2 0.5,-1.4 0.7,-2.9 0.6,-4.4 0,-0.7 -0.2,-1.4 -0.4,-2.1 z"
   id="path272" />

				</g>

				<g
   id="g275">
					<path
   fill="#662d91"
   d="m 1124.5,178.4 c -7.5,-0.7 -14.2,4.8 -14.9,12.3 -0.1,1.4 -0.1,2.8 0.2,4.1 1.9,2 5.2,3.8 10.6,4.5 6.1,0.9 10.8,0.5 14.4,-0.2 1,-1.7 1.7,-3.7 1.9,-5.8 0.8,-7.5 -4.7,-14.1 -12.2,-14.9 z"
   id="path273" />

					<path
   fill="#381850"
   d="m 1126.2,181.6 c -6.6,-2.7 -11.9,4.6 -11.9,4.6 0,0 -1.1,2.2 3.4,3.1 4.5,0.8 15.1,-5 8.5,-7.7 z"
   id="path274" />

					<path
   fill="#4a287a"
   d="m 1129.9,193.3 c -9,1.3 -16,-1.6 -20,-4.4 -0.1,0.6 -0.2,1.2 -0.3,1.8 -0.1,1.4 -0.1,2.8 0.2,4.1 1.9,2 5.2,3.8 10.6,4.5 6.1,0.9 10.8,0.5 14.4,-0.2 1,-1.7 1.7,-3.7 1.9,-5.8 0.1,-1 0.1,-2 0,-3 -0.8,1.3 -2.8,2.5 -6.8,3 z"
   id="path275" />

				</g>

				<path
   fill="#ddb042"
   d="m 1057.3,173.1 c -4,-3.7 3.7,-7.3 3.7,-7.3 -5.3,0.3 -7.7,4 -11.3,7.3 -3.6,3.3 14.3,10.3 32,9.3 17.7,-1 20.3,-8.7 20.3,-8.7 0,0 -4.3,3.7 -13,4.3 -8.7,0.6 -27.7,-1.2 -31.7,-4.9 z"
   id="path276" />

				<path
   fill="#ddb042"
   d="m 1196.3,148.4 c -7.3,-2 -20.7,0.7 -20.7,0.7 0,0 21.3,1.7 23,3 1.7,1.3 -9,7 -9,7 0,0 7,-2.7 11,-4 4,-1.3 3.1,-4.7 -4.3,-6.7 z"
   id="path277" />

				<path
   fill="#ddb042"
   d="m 1154.7,192.5 c -0.1,0 -0.2,0 -0.3,0 -0.1,-0.1 0,-0.1 0.3,0 z"
   id="path278" />

				<path
   fill="#ddb042"
   d="m 1196.3,188.1 c -5.7,1 -11,3.3 -26,4 -11.5,0.5 -14.8,0.4 -15.7,0.4 6.5,0.7 54,1.6 53,-1.4 -0.9,-3 -5.6,-4 -11.3,-3 z"
   id="path279" />

				<g
   id="g288">
					<path
   fill="#ee3124"
   d="m 1133.4,153.1 c -12.7,-2.9 -23.6,8.9 -23.8,11.2 0,0 8.9,7.5 19.1,8.9 10.3,1.4 24.7,-0.4 27.6,-3.8 2.9,-3.5 -10.2,-13.4 -22.9,-16.3 z"
   id="path280" />

					<path
   fill="#f6891f"
   d="m 1117.4,161.1 c -1.1,-0.3 -2,0.9 -2,0.9 1.5,0.1 3.1,-0.7 2,-0.9 z"
   id="path281" />

					<path
   fill="#f6891f"
   d="m 1124.6,164.6 c -1.1,-0.3 -2,0.9 -2,0.9 1.4,0.2 3,-0.6 2,-0.9 z"
   id="path282" />

					<path
   fill="#f6891f"
   d="m 1130.9,159.5 c -1.1,-0.3 -2,0.9 -2,0.9 1.5,0.1 3.1,-0.7 2,-0.9 z"
   id="path283" />

					<path
   fill="#f6891f"
   d="m 1141.9,168.6 c -1.1,-0.3 -2,0.9 -2,0.9 1.4,0.1 3.1,-0.7 2,-0.9 z"
   id="path284" />

					<path
   fill="#f6891f"
   d="m 1145.8,162.8 c -1.1,-0.3 -2,0.9 -2,0.9 1.4,0.2 3.1,-0.7 2,-0.9 z"
   id="path285" />

					<path
   fill="#f6891f"
   d="m 1125.3,158.1 c -1.8,-0.4 -3.4,1.5 -3.4,1.5 2.5,0.3 5.2,-1.1 3.4,-1.5 z"
   id="path286" />

					<path
   fill="#f6891f"
   d="m 1132.9,165.2 c -1.8,-0.4 -3.4,1.5 -3.4,1.5 2.4,0.3 5.2,-1.1 3.4,-1.5 z"
   id="path287" />

					<path
   fill="#f6891f"
   d="m 1137.6,159.8 c -1.8,-0.4 -3.4,1.5 -3.4,1.5 2.5,0.3 5.2,-1.1 3.4,-1.5 z"
   id="path288" />

				</g>

				<g
   id="g297">
					<path
   fill="#ee3124"
   d="m 1179.8,179.5 c -12.9,1.4 -19.4,16.2 -18.8,18.5 0,0 10.8,4.2 21,2.1 10.2,-2.1 23.2,-8.6 24.8,-12.8 1.5,-4.2 -14.1,-9.2 -27,-7.8 z"
   id="path289" />

					<path
   fill="#f6891f"
   d="m 1167.3,192.4 c -1.1,0.1 -1.6,1.5 -1.6,1.5 1.4,-0.3 2.7,-1.6 1.6,-1.5 z"
   id="path290" />

					<path
   fill="#f6891f"
   d="m 1175.2,193.4 c -1.1,0.1 -1.6,1.5 -1.6,1.5 1.5,-0.3 2.7,-1.6 1.6,-1.5 z"
   id="path291" />

					<path
   fill="#f6891f"
   d="m 1179.5,186.4 c -1.1,0.1 -1.6,1.5 -1.6,1.5 1.4,-0.3 2.7,-1.6 1.6,-1.5 z"
   id="path292" />

					<path
   fill="#f6891f"
   d="m 1192.8,191.4 c -1.1,0.1 -1.6,1.5 -1.6,1.5 1.5,-0.3 2.8,-1.7 1.6,-1.5 z"
   id="path293" />

					<path
   fill="#f6891f"
   d="m 1194.6,184.6 c -1.1,0.1 -1.6,1.5 -1.6,1.5 1.5,-0.3 2.7,-1.6 1.6,-1.5 z"
   id="path294" />

					<path
   fill="#f6891f"
   d="m 1173.7,186.9 c -1.9,0.2 -2.7,2.6 -2.7,2.6 2.5,-0.5 4.6,-2.8 2.7,-2.6 z"
   id="path295" />

					<path
   fill="#f6891f"
   d="m 1183.2,191.2 c -1.9,0.2 -2.7,2.6 -2.7,2.6 2.5,-0.6 4.6,-2.8 2.7,-2.6 z"
   id="path296" />

					<path
   fill="#f6891f"
   d="m 1185.9,184.5 c -1.9,0.2 -2.7,2.6 -2.7,2.6 2.4,-0.6 4.6,-2.8 2.7,-2.6 z"
   id="path297" />

				</g>

			</g>

		</g>
    </g>
  </g>
</svg>
